/* XPM */
static char *_a51501b433345a8df68289d4ae2b907AAQ8YNWqgbJrkp7n[] = {
/* columns rows colors chars-per-pixel */
"32 32 149 2 ",
"   c #19131C",
".  c #1A131C",
"X  c #1A131D",
"o  c #1A141F",
"O  c #1C141F",
"+  c #1C151F",
"@  c #23181E",
"#  c #24181E",
"$  c #25181F",
"%  c #2A1A1A",
"&  c #301C1F",
"*  c #341F1E",
"=  c #22221D",
"-  c #24241E",
";  c #25241F",
":  c #3E231A",
">  c #352B1E",
",  c #1B1520",
"<  c #1D1622",
"1  c #1E1725",
"2  c #1F1825",
"3  c #241820",
"4  c #2A1A20",
"5  c #2A1D21",
"6  c #2E1D22",
"7  c #2F1E22",
"8  c #252423",
"9  c #2D2721",
"0  c #2F2024",
"q  c #342D24",
"w  c #2D3321",
"e  c #332233",
"r  c #332333",
"t  c #342335",
"y  c #342336",
"u  c #352336",
"i  c #392535",
"p  c #3C2736",
"a  c #352438",
"s  c #352538",
"d  c #372538",
"f  c #38263B",
"g  c #3C2738",
"h  c #3D2738",
"j  c #3F2939",
"k  c #38283E",
"l  c #422837",
"z  c #432837",
"x  c #442937",
"c  c #402939",
"v  c #422838",
"b  c #442A39",
"n  c #452B39",
"m  c #442A3A",
"M  c #48303D",
"N  c #4A313D",
"B  c #673334",
"V  c #673436",
"C  c #6A3539",
"Z  c #6F3739",
"A  c #703739",
"S  c #703839",
"D  c #753939",
"F  c #783B3A",
"G  c #793C3A",
"H  c #7C3E3B",
"J  c #393251",
"K  c #3B3457",
"L  c #3D3456",
"P  c #3D3559",
"I  c #3D3659",
"U  c #3E375C",
"Y  c #4B3957",
"T  c #4A3958",
"R  c #553C53",
"E  c #AC462C",
"W  c #AD482F",
"Q  c #B44728",
"!  c #B54828",
"~  c #B7492B",
"^  c #B74B2E",
"/  c #B84A2A",
"(  c #BC4D29",
")  c #BE4E29",
"_  c #BF4F2C",
"`  c #BF582E",
"'  c #AD4932",
"]  c #E8701A",
"[  c #E8781C",
"{  c #F7751B",
"}  c #F1711D",
"|  c #F8761B",
" . c #F8771B",
".. c #F77D1D",
"X. c #FC791A",
"o. c #C34D29",
"O. c #CD5426",
"+. c #C95128",
"@. c #C95228",
"#. c #C0582B",
"$. c #C05A2B",
"%. c #C55D2A",
"&. c #C95A2A",
"*. c #CD5C28",
"=. c #8B4E41",
"-. c #8C4E40",
";. c #8D4F43",
":. c #8E4F43",
">. c #945143",
",. c #905045",
"<. c #955245",
"1. c #965344",
"2. c #9E5647",
"3. c #A35A48",
"4. c #A95E4B",
"5. c #AA5F4B",
"6. c #AB604C",
"7. c #B1644E",
"8. c #B2654F",
"9. c #86B93C",
"0. c #87B93C",
"q. c #86B93D",
"w. c #96BF3D",
"e. c #FC811C",
"r. c #8FC83F",
"t. c #91C83F",
"y. c #91CA3F",
"u. c #A3C33E",
"i. c #F4CA32",
"p. c #FACF30",
"a. c #E48E66",
"s. c #E58F68",
"d. c #E68F68",
"f. c #E89168",
"g. c #E99368",
"h. c #EE9469",
"j. c #EF9469",
"k. c #EC946B",
"l. c #EE966B",
"z. c #F0956A",
"x. c #F6996C",
"c. c #F79A6D",
"v. c #91CA40",
"b. c #92CC40",
"n. c #9FD041",
"m. c #9BD943",
"M. c #9CDA43",
"N. c #9CDB43",
"B. c #A0CE41",
/* pixels */
"N.N.N.N.N.N.N.N.N.N.N.N.N.N.N.N.N.N.N.N.N.N.N.N.N.N.N.N.N.N.N.N.",
"N.N.N.N.N.N.N.N.N.N.N.N.N.N.N.N.N.N.N.N.N.N.N.N.N.N.N.N.N.N.N.N.",
"N.y.= = = = = = = = = = = = = = = = = = = = = = = = = = = w N.N.",
"y.8 K K K K K K K K K K K K K K K K K K K K K K K K K K K J w N.",
"r.X k U U U U U U U U U U U U U U U U U U U U U U U U U I s ; N.",
"m.9.O f f s o o o o o o o o o o o o o o o o o o o < f f s ; b.N.",
"N.m.9.O s s y y y y y y y y y y y y y y y y y y y y s y ; b.N.N.",
"N.N.r.X s s s s s s s s s s s s s s s s s s s s s s s y ; N.N.N.",
"N.y.8 K I I I I I I I I I I I I I I I I I I I I I I I L e w N.N.",
"N.r., U U U U U U U U U U U U U U U U U U U U U U U U I y ; N.N.",
"N.r., U U U U U U U U U U U U U U U U U U U U U U U U I y ; N.N.",
"N.r., U U U U U U U U U U U U U U U U U U U U U U U U I y ; N.N.",
"N.r., U U U U U U U U U U T ' U U U U U U U U U U U I f y ; N.N.",
"N.m.9.1 U T ' U U U U U U Y o.' U U U U U U U I b W f y ; b.N.N.",
"N.N.r., U Y o.' U U U U U Y +.} ' U T ' U U I b ( } E y ; N.N.N.",
"N.N.m.9.1 Y &.i.' U U U T ` p.{ ^ T ` i.' I f x +.{ Q ; b.N.N.N.",
"N.N.N.m.9.2 R *.} ' T ' Y +.e.X.} ` p...! f l ( | { $.b.N.N.N.N.",
"N.N.N.N.m.9.4 +.{ ^ Y o.` p.X.X.X.| ..( l l ( | X.{ $.N.N.N.N.N.",
"N.N.N.N.N.m.w.+.X.} _ { | [ % : X.X.X.} / ( | X.{ %.n.N.N.N.N.N.",
"N.N.N.N.N.N.B.+.X.X.| ] % * <.:.: X.X.X.{ | X.X.{ $.N.N.N.N.N.N.",
"N.N.N.N.N.N.N.u.O.X.] * <.:.c b B % : X.X.X.X.{ %.n.N.N.N.N.N.N.",
"N.N.N.N.N.N.N.B.! % * :.b F A A Z y e % : X.X.{ $.N.N.N.N.N.N.N.",
"N.N.N.N.N.N.N.y.& <.>.F A D D A i O c <.:.% % > n.N.N.N.N.N.N.N.",
"N.N.N.N.N.y.= 9 >.G F D A g g g y X g G H <.<.=.= = w N.N.N.N.N.",
"N.N.N.N.y.9 <.>.F D D A g N j.j.d.:.s c D G G H <.<.=.w N.N.N.N.",
"N.N.N.y.9 >.G F D D A g N f.5.5.7.j.,.g D D D S c c p ; N.N.N.N.",
"N.N.y.9 >.F G 2.<.g g s N c.5.c.z.7.d.s g c D D A A C e w N.N.N.",
"N.N.r.# 2.G <.c j s s y 0 c.3.7.c.6.j.s s s g c D D D V ; N.N.N.",
"N.N.m.9.6 <.j s s y X X # 7.j.3.5.6.f.X O s s s g g g i ; N.N.N.",
"N.N.N.m.9.3 s y X ; v.v.9.6 7.c.c.a.q v.9.X X O s s y ; b.N.N.N.",
"N.N.N.N.m.9.X ; v.b.N.N.m.9.@ 5 5 q b.N.m.v.v.9.X X ; b.N.N.N.N.",
"N.N.N.N.N.m.v.b.N.N.N.N.N.m.v.v.v.b.N.N.N.N.N.m.v.v.b.N.N.N.N.N."
};
