/* XPM */
static char *ac93a6849e544e0c90122950d48b8f26EtUvoR2CXj3Ydh2I[] = {
/* columns rows colors chars-per-pixel */
"32 32 10 1 ",
"  c #17111A",
". c #372538",
"X c #753939",
"o c #3E375C",
"O c #FC791A",
"+ c #C44D29",
"@ c #A25948",
"# c #9EC238",
"$ c #FFE433",
"% c #FFA070",
/* pixels */
"################################",
"################################",
"################################",
"##                            ##",
"# oooooooooooooooooooooooooooo #",
"# .oooooooooooooooooooooooooo. #",
"## ...                    ... ##",
"### ........................ ###",
"### ........................ ###",
"## ooooooooooooooooooooooooo. ##",
"## ooooooooooooooooooooooooo. ##",
"## ooooooooooooooooooooooooo. ##",
"## ooooooooooooooooooooooooo. ##",
"## ooooooooooo+oooooooooooo.. ##",
"### oo+ooooooo++oooooooo.+.. ###",
"### oo++oooooo+O+oo+ooo.+O+. ###",
"#### o+$+oooo+$O+o+$+o..+O+ ####",
"##### o+O+o+o+OOO+$O+..+OO+#####",
"###### +O+o++$OOOOO+..+OOO+#####",
"#######+OO+OOO  OOOO++OOO+######",
"#######+OOOO  @@ OOOOOOOO+######",
"########+OO @@..X  OOOOO+#######",
"########+  @.XXXX..  OOO+#######",
"######## @@XXXXX. .@@   ########",
"######  @XXXX.... .XX@@@   #####",
"##### @@XXXX..%%%@..XXXX@@@ ####",
"#### @XXXXX..%@@@%@.XXXX... ####",
"### @XX@@....%@%%@%...XXXXX. ###",
"### @X@..... %@@%@%.....XXXX ###",
"#### @....   @%@@@%  ....... ###",
"##### ..  ### @%%% ##   ... ####",
"######  ######    ######   #####"
};
