/* XPM */
static char *c54f82b6a0ca4515fd3eb04074802590KKp9HTfAFexfafQS[] = {
/* columns rows colors chars-per-pixel */
"32 32 92 1 ",
"  c black",
". c #17111A",
"X c #7A213A",
"o c #E14141",
"O c #E47070",
"+ c #9EC238",
"@ c #9EC338",
"# c #9FC338",
"$ c #9FC339",
"% c #9FC438",
"& c #9FC439",
"* c #9FC539",
"= c #A0C438",
"- c #A0C538",
"; c #A1C538",
": c #A0C439",
"> c #A0C539",
", c #A1C539",
"< c #A1C639",
"1 c #A2C639",
"2 c #A1C53A",
"3 c #A1C53B",
"4 c #A1C63B",
"5 c #A1C73B",
"6 c #A2C63A",
"7 c #A2C73A",
"8 c #A3C73A",
"9 c #A2C63B",
"0 c #A2C73B",
"q c #A2C63C",
"w c #A2C73C",
"e c #A3C73C",
"r c #A1C83B",
"t c #A2C83B",
"y c #A3C83B",
"u c #A4C83B",
"i c #A4C93B",
"p c #A5C93B",
"a c #A3C83C",
"s c #A3C93C",
"d c #A3CA3C",
"f c #A4C83C",
"g c #A4C93C",
"h c #A5C93C",
"j c #A4C83D",
"k c #A4C93D",
"l c #A5C93D",
"z c #A5CA3C",
"x c #A4CA3D",
"c c #A5CA3D",
"v c #A5CB3D",
"b c #A6CA3D",
"n c #A6CB3D",
"m c #A7CB3D",
"M c #A4C93E",
"N c #A5C93E",
"B c #A4CA3E",
"V c #A5CA3E",
"C c #A4CB3E",
"Z c #A5CB3E",
"A c #A5CA3F",
"S c #A5CB3F",
"D c #A6CB3E",
"F c #A7CB3E",
"G c #A6CA3F",
"H c #A6CB3F",
"J c #A7CB3F",
"K c #A6CC3F",
"L c #A7CC3F",
"P c #A7CD3F",
"I c #A8CC3F",
"U c #A8CD3F",
"Y c #A8CE3F",
"T c #A7CB40",
"R c #A7CC40",
"E c #A7CD40",
"W c #A8CD40",
"Q c #A9CD40",
"! c #A9CE40",
"~ c #A8CF40",
"^ c #A9CF40",
"/ c #A9CE41",
"( c #A9CF41",
") c #AACF40",
"_ c #AACF41",
"` c #AACF42",
"' c #ABCF42",
"] c #AAD042",
"[ c #682B82",
"{ c #BF3FB3",
"} c #B2BCC2",
"| c white",
/* pixels */
"+++++++% .  ----------333  ----+",
"++++++-- [{[   -------   [[ 3---",
"+++++--- {[{[[[  rr   [[[[  33--",
"++++---3 [{[[[[{{  [[[[{  -----3",
"+++---33- [[[{{{[[[[[[  uur---33",
"++%------ [{{{[[[[[[  FFFuuur---",
"++------r {{{[[[[[  }}  FFFurr--",
"+------ru {[[[[[  }}|||| FFFuur-",
"+--3---u  [[{[  }}|||||| FFFFFu-",
"%-33--  [[[[  }}||||||||| FFFFur",
"----- [[[[  }}||||..||||| FFFFFu",
"-----r     }||||||..||||  LFFFFd",
"-----uFFFF }||||||||||| O  LFFFd",
"-3- -uFFFF }|||||||||| ooOO  FFF",
"-3 [   FFFU ||||||||| oooooOO FF",
"-- {[{[ ....|||||||||| oooooo.FF",
".. [{[[[[[[[  ||||||||       UFF",
".| [[[[[[[[[{[  ||||}.}.]!!UUUFF",
".} [[[[[{[[{[{[[ .}.}}}}.!!UUUFF",
"-. [{[[[[[[[{[[[.}}}||||.!!UULFF",
"-. [[[[[[[[[[[[.||||||||.!!ULLFF",
"--.[[[{[[[[[[[[.||||||||.!!ULFFF",
"--.[[{[{[[[[[[.|||||||}}.!!!LFFF",
"---.[[{[[[[{[[.||||}}}..!!!RLFFF",
"%---  [[[[[[[.}}}}}...!!!!!RFFFF",
"+---33       ......!!!!!!!RFFFFF",
"+%--333jdF.X oo !!!!!!!!!RFFFFdd",
"++---33j3d.X ooo !!!R!RRTFFFFFdd",
"++%---3j3dF.X ooo TTTTFFFFFFFFdd",
"+++%--333dF.X oooo FFFFFFFFFFFdd",
":+++---333FF..  oo FFFFFFFFFFFdr",
":+++-----3dFF     FFFFFFFFFFFFur"
};
