/* XPM */
static char *_15b38117c8a4f1bf25c0ce6a7f5cedaMOgd1hwiNrw472Y7[] = {
/* columns rows colors chars-per-pixel */
"32 32 180 2 ",
"   c black",
".  c #0B0407",
"X  c #0E0407",
"o  c #0C090D",
"O  c #0C0D0D",
"+  c #170A0C",
"@  c #1A0D0D",
"#  c #0E1108",
"$  c #121908",
"%  c #141A09",
"&  c #0E0811",
"*  c #0E0B10",
"=  c #130818",
"-  c #19091B",
";  c #1D0A1D",
":  c #17111A",
">  c #161418",
",  c #161618",
"<  c #1E1D1A",
"1  c #2A1414",
"2  c #2C151D",
"3  c #1C280C",
"4  c #1F2317",
"5  c #24271D",
"6  c #1A0D20",
"7  c #230B21",
"8  c #251228",
"9  c #26162D",
"0  c #3C1726",
"q  c #3C1A21",
"w  c #271031",
"e  c #2A1234",
"r  c #2D1234",
"t  c #202223",
"y  c #27212A",
"u  c #29262A",
"i  c gray18",
"p  c #2F3521",
"a  c #322630",
"s  c #3D2F3D",
"d  c #3F303F",
"f  c #451414",
"g  c #481617",
"h  c #53181B",
"j  c #551919",
"k  c #421422",
"l  c #491524",
"z  c #4C1524",
"x  c #442D28",
"c  c #6E2020",
"v  c #6F2E2E",
"b  c #7D3126",
"n  c #623131",
"m  c #304415",
"M  c #3B5219",
"N  c #3D541C",
"B  c #3C4923",
"V  c #4A4B1C",
"C  c #464B29",
"Z  c #4A5021",
"A  c #44592B",
"S  c #495D29",
"D  c #4C6B21",
"F  c #507022",
"G  c #527225",
"H  c #547327",
"J  c #57732B",
"K  c #58742E",
"L  c #4D6132",
"P  c #51633A",
"I  c #331540",
"U  c #351642",
"Y  c #361B41",
"T  c #3E1C4C",
"R  c #421640",
"E  c #481844",
"W  c #421C53",
"Q  c #481E5A",
"!  c #4E1F5D",
"~  c #402647",
"^  c #413C44",
"/  c #412350",
"(  c #49215B",
")  c #4B2A5B",
"_  c #52205F",
"`  c #502F5F",
"'  c #55236A",
"]  c #5F2876",
"[  c #6C2F60",
"{  c #612879",
"}  c #62297B",
"|  c #6B2A7F",
" . c #742873",
".. c #702979",
"X. c #434749",
"o. c #47464E",
"O. c #495344",
"+. c #565D52",
"@. c #5A545D",
"#. c #665C6B",
"$. c #5D6163",
"%. c #5D6266",
"&. c #636263",
"*. c #63656C",
"=. c #69666C",
"-. c #686A71",
";. c #6F6B70",
":. c #6F7772",
">. c #717178",
",. c #7B7A7F",
"<. c #8C2828",
"1. c #9C2D2D",
"2. c #85362E",
"3. c #B83535",
"4. c #C73A3A",
"5. c #8F4242",
"6. c #9D4848",
"7. c #E14141",
"8. c #E25050",
"9. c #E36767",
"0. c #61892A",
"q. c #6C972E",
"w. c #6A8F34",
"e. c #739C36",
"r. c #80B337",
"t. c #81B539",
"y. c #84B73C",
"u. c #8AC23B",
"i. c #8DC43E",
"p. c #91CC3E",
"a. c #93CD40",
"s. c #9CDB43",
"d. c #682B82",
"f. c #6E2C85",
"g. c #772C82",
"h. c #722D88",
"j. c #782F8B",
"k. c #7C2E88",
"l. c #812D83",
"z. c #833191",
"x. c #8D3397",
"c. c #93359A",
"v. c #94359B",
"b. c #9A379E",
"n. c #AF3BAA",
"m. c #B93EB0",
"M. c #BF3FB3",
"N. c gray51",
"B. c #80838A",
"V. c #82878E",
"C. c #89868A",
"Z. c #918686",
"A. c #928A8A",
"S. c #898E91",
"D. c #919192",
"F. c #969798",
"G. c #9F9F9F",
"H. c #969DA3",
"J. c #9F9EA2",
"K. c #A7A5A9",
"L. c gray69",
"P. c #B7B6B8",
"I. c #BBC0C3",
"U. c #C0C8CD",
"Y. c #C8CBCE",
"T. c #CFD2D6",
"R. c #CFD5D9",
"E. c gray82",
"W. c #D2D2D2",
"Q. c #D5D4D5",
"!. c #D8DDE0",
"~. c #DFDFE1",
"^. c #E2E2E2",
"/. c #E5E4E5",
"(. c #E6E7E8",
"). c gray93",
"_. c #EFEFEF",
"`. c #F1F3F4",
"'. c #FAFAFB",
"]. c white",
/* pixels */
"s.s.s.s.s.s.s.s.0.& 8 ; B r.r.u.s.s.s.s.s.s.p.r.r.J = B u.s.s.s.",
"s.s.s.s.s.s.s.s.0.r x.b._ = = B r.u.s.p.r.r.J = = I { U M s.s.s.",
"s.s.s.s.s.s.s.s.0.R b.x.v.d.d.! 7 C r.J = = I f.| ' ~ 3 D s.s.s.",
"s.s.s.s.s.s.s.s.q.a g.v.d.f.j.c.m. .= I d.d.{ ..[ 3 D s.s.s.s.s.",
"s.s.s.s.s.s.s.s.s.0.w f.j.c.m.n.v.d.d.d.{ ' ~ 3 D s.s.s.s.s.s.s.",
"s.s.s.s.s.s.s.s.s.0.r c.M.m.v.d.d.d.{ ' / t A r.u.s.s.s.s.s.s.s.",
"s.s.s.s.s.s.s.s.s.0.E m.n.v.d.d.{ ' / t $.U.S.i L u.s.s.s.s.s.s.",
"s.s.s.s.s.s.s.s.p.F R v.f.h.{ ' / t $.U.!.].].].G.M s.s.s.s.s.s.",
"s.s.s.s.s.s.p.r.J = I d.k.l./ t $.U.!.].].].].].L.L u.s.s.s.s.s.",
"s.s.s.s.s.p.J = I d.{ ' / t $.U.!.].).Q./.].].].].G.M s.s.s.s.s.",
"s.s.s.s.s.q.a ' ' ' U O $.U.!.].].].K.: ;.].].].).N.M s.s.s.s.s.",
"s.s.s.s.s.s.q.3 3 3 $ X.R.].].].].].P.^ C.].].).A.@ m u.s.s.s.s.",
"s.s.s.p.u.s.s.s.s.s.0.X.R.].].].].].].].].].).Z.v 6.1 Z r.u.s.s.",
"s.s.p.J B r.r.u.s.s.q.O.I.].].].].].].].].).Z.c 7.8.9.6.1 Z u.s.",
"s.s.0.r _ - ; B t.y.y.H &.].].].].].].].].L.n 4.7.7.7.8.9.5.N s.",
"a.y.G R b.x.v.Q 6 9 9 9 #.E.^.].].].].].].].G.f 3.3.3.3.3.2.K s.",
"w.y u w z.v.d.d.d.d.d.d.! ; @.E.^.].].].'.(.D.> # 3 3 3 3 D s.s.",
"w.=.F.w d.d.d.d.f.h.d.f.x.b._ = @.E.~.(.Y.V.*.V.P i.s.s.s.s.s.s.",
"e.+.%.w f.h.d.d.z.v.d.z.b.x.v.d.W > *.V.-.U.U.U.B.S s.s.s.s.s.s.",
"s.w.& w z.v.d.d.d.d.d.d.z.v.d.{ ` >.U.U.!.].].].K.S s.s.s.s.s.s.",
"s.e.4 e d.d.f.h.d.d.d.d.d.d.d.( ;.].].].].].].].K.S s.s.s.s.s.s.",
"s.s.w.Y d.f.x.b.h.d.d.d.d.d.{ ` C.].].].].].'.`.J.S s.s.s.s.s.s.",
"s.s.e.d ] z.b.x.v.d.d.f.h.d.( ;.].].].'.`.`.T.H.:.K s.s.s.s.s.s.",
"s.s.s.e.s ' g.v.d.d.d.z.v.{ ) ,.`.`.`.T.H.H.:.p K s.s.s.s.s.s.s.",
"s.s.s.s.q.3 a ' ' ' ' ' ' T o.H.H.H.H.:.p p K s.s.s.s.s.s.s.s.s.",
"s.s.s.s.s.s.q.3 3 3 % . X + q 2 < p p K s.s.s.s.s.s.s.s.s.s.s.s.",
"s.s.s.s.s.s.s.s.s.s.w.0 z j 7.1.V u.s.s.s.s.s.s.s.s.s.s.s.s.s.s.",
"s.s.s.s.s.s.s.s.s.s.e.x l h 4.7.1.V u.s.s.s.s.s.s.s.s.s.s.s.s.s.",
"s.s.s.s.s.s.s.s.s.s.s.w.0 z j 7.7.1.V u.s.s.s.s.s.s.s.s.s.s.s.s.",
"s.s.s.s.s.s.s.s.s.s.s.e.x k g 3.4.7.<.M s.s.s.s.s.s.s.s.s.s.s.s.",
"s.s.s.s.s.s.s.s.s.s.s.s.e.5 o   f 3.b D s.s.s.s.s.s.s.s.s.s.s.s.",
"s.s.s.s.s.s.s.s.s.s.s.s.s.q.3 3 3 3 D s.s.s.s.s.s.s.s.s.s.s.s.s."
};
