/* XPM */
static char *_3f0510f5fa042fd8aa94ca419a510360BsbB4qj4l0Luz8i[] = {
/* columns rows colors chars-per-pixel */
"32 32 2 1 ",
"  c #59C135",
". c #9CDB43",
/* pixels */
"..... ..........................",
".... ................. .........",
". ..................... ........",
"....................... .. .....",
"... ....  .........    .  .. .. ",
".........   . ..................",
"..  ............................",
"..   ...........................",
"............................ . .",
".. .........   ... .   .....  . ",
"  ................. .......     ",
".. .. ..........................",
"...   .  .......................",
"...       .............. .......",
" .   ....................   ... ",
". ............................  ",
" .............     .. . ....... ",
"...  ........    ..  ...........",
"..    ..........................",
".......................  .......",
"..   ..  ..   ................  ",
"..  .......................    .",
".. ............................ ",
"... .................... .......",
".... ..... ........       ......",
"..  ..... .   .......    . .... ",
"..............................  ",
"................................",
".. ...................... ......",
"...   ...... . .     .....  ..  ",
"  ... ............... ..........",
"..... ............... .........."
};
