/* XPM */
static char *_dd1c0b01f2b44cb9b930702d4ed11f9Ofx0Y80AedlTf7N2[] = {
/* columns rows colors chars-per-pixel */
"32 32 10 1 ",
"  c #122020",
". c #1B392D",
"X c #24523B",
"o c #1A7A3E",
"O c #14A02E",
"+ c #5F892D",
"@ c #59C135",
"# c #72C135",
"$ c #9CDB43",
"% c #91E550",
/* pixels */
"$$$$$$$$$$$$$$$$$$$$$$$$$$$$$$$$",
"$$$$$$$$$$$      $$$    $$$$$$$$",
"$$$$$$  $  O@OOO% $ @@@@ $$$$$$$",
"$$$$$ @% OOOOO@O@  O@%% $$  $$$$",
"$$$$$$ O%OO@OO@OO@OOO@@   @@ $$$",
"$$$$$ O@OO@@@O@@@O@@@@@O@OO@@ $$",
"$$$$ @O@@@@@O@@OOO@@@@@@@@O% $$$",
"$$$ %#@O@@@@@%@%@O@@O@%@O@%OO $$",
"$$ @@@@OO%OO@O%@O@@OO@@%%@@O@@ $",
"$$ OO@@@@@%@@O@@O@@@OO@%@@O%O@ $",
"$$ OO@@@@%@@@@OO@@@@OOO@OOOO%O $",
"$$$ OOO@@O@O@@OOO@O@@@@@OOO%@ $$",
"$  @@@@@OO@OOO@@@@OOO@@%%OOOo $$",
" O@OOo@OO@@OOO%OOOOoo@O%OOOO.. $",
" OOOOooO@@@@O%@%OOOo@OoooOOOOX $",
"$ oXoooOooO@O@O@OOO@OOooXO@oo. $",
"$ oXoooOooO@O@O@OOO@OOooXO@oo. $",
"$ .o@ooOooOOooooOO@@OOooXOoooX. ",
"$ oo@@oo..oOXXXoOOOoo..XXooooXo ",
"$$ XXooXo..oXXooOXX...OOooX.X.X ",
"$ Xo.ooOOOXXoOXXOXXXXXoOoX.XX.. ",
"$ XX.XX..OOOOOoXooOOX.XOO..X.. $",
"$$ .XX....XO.oOoXoXXOXoOO..X. $$",
"$$$ .o..X...XXXXXX.OOXoX..XX $$$",
"$$$$ XXoXXoXXXXoo....oXXXXX. $$$",
"$$$$ XoXXXXXoXo.oX.....XX.. $$$$",
"$$$$$ X..XX.Xo..XX..X.XX.. $$$$$",
"$$$$$+   ...XoXXXXXXXX... +$$$$$",
"$$$$+++++  ....X........ +++$$$$",
"$$$++++++++             +++++$$$",
"$$$$+++++++++++++++++++++++++$$$",
"$$$$$$++++++++++++++++++++++$$$$"
};
