/* XPM */
static char *_64a4704bb8c4565ee0c12b57b39fe68cq7FYsdK1Y7fnZPL[] = {
/* columns rows colors chars-per-pixel */
"32 32 10 1 ",
"  c None",
". c #17111A",
"X c #9D5546",
"o c #EF9F32",
"O c #FFDD34",
"+ c #2B5586",
"@ c #3894D1",
"# c #389AD5",
"$ c #6BEEE8",
"% c white",
/* pixels */
"                                ",
"                                ",
"                                ",
"              ....              ",
"            ..XOOX..            ",
"         ...XOOXXOOX...         ",
"        .%%OOOOOOOOOooX.        ",
"       .%OOXXXXXXXXXXooX.       ",
"       .OOX+@######$$Xoo.       ",
"       .OX+#######$$$$Xo.       ",
"       .OX#######%$$$@Xo.       ",
"       .OX######%%$$##Xo.       ",
"       .OX#####%%%$###Xo.       ",
"       .OX####$%%%###@Xo.       ",
"       .OX@##$$%%####@Xo.       ",
"       .OX@#%$$%#####$Xo.       ",
"       .OX@%%$$#####$$Xo.       ",
"       .OX$%%$#####%$$Xo.       ",
"       .OX$%%#####%%$@Xo.       ",
"       .OX$%#####%%%#@Xo.       ",
"       .OX$#####$%%##@Xo.       ",
"       .OX#####$$%###@Xo.       ",
"       .oX+###$$$####+Xo.       ",
"       .ooX+@$$$@@@@+Xoo.       ",
"       .XooXXXXXXXXXXooo.       ",
"        .Xooooooooooooo.        ",
"         ...XooXXooX...         ",
"            ..XooX..            ",
"              ....              ",
"                                ",
"                                ",
"                                "
};
