/* XPM */
static char *_b4810627d1e43e6c522bb94e5df941fSAFPHXVyxQDX9oXn[] = {
/* columns rows colors chars-per-pixel */
"32 32 102 2 ",
"   c #17111A",
".  c #734538",
"X  c #5D1F70",
"o  c #626C75",
"O  c #955843",
"+  c #A05E47",
"@  c #B86C4F",
"#  c #CF7957",
"$  c #EC8A2D",
"%  c #9EC238",
"&  c #9EC338",
"*  c #9FC339",
"=  c #9FC438",
"-  c #9FC439",
";  c #9FC539",
":  c #A1C538",
">  c #A0C439",
",  c #A0C539",
"<  c #A1C539",
"1  c #A1C639",
"2  c #A2C639",
"3  c #A1C53A",
"4  c #A1C53B",
"5  c #A1C63B",
"6  c #A1C73B",
"7  c #A2C63A",
"8  c #A2C73A",
"9  c #A3C73A",
"0  c #A2C63B",
"q  c #A2C73B",
"w  c #A3C73B",
"e  c #A2C63C",
"r  c #A2C73C",
"t  c #A3C73C",
"y  c #A1C83B",
"u  c #A2C83B",
"i  c #A3C83B",
"p  c #A4C83B",
"a  c #A4C93B",
"s  c #A5C93B",
"d  c #A3C83C",
"f  c #A2C93C",
"g  c #A3C93C",
"h  c #A4C83C",
"j  c #A4C93C",
"k  c #A5C93C",
"l  c #A4C83D",
"z  c #A4C93D",
"x  c #A5C93D",
"c  c #A4CA3C",
"v  c #A5CA3C",
"b  c #A4CA3D",
"n  c #A5CA3D",
"m  c #A5CB3D",
"M  c #A6CA3D",
"N  c #A6CB3D",
"B  c #A7CB3D",
"V  c #A4C83E",
"C  c #A4C93E",
"Z  c #A5C93E",
"A  c #A4CA3E",
"S  c #A5CA3E",
"D  c #A4CB3E",
"F  c #A5CB3E",
"G  c #A5CA3F",
"H  c #A5CB3F",
"J  c #A6CB3E",
"K  c #A7CB3E",
"L  c #A6CA3F",
"P  c #A6CB3F",
"I  c #A7CB3F",
"U  c #A7CC3F",
"Y  c #A7CD3F",
"T  c #A7CE3F",
"R  c #A8CC3F",
"E  c #A8CD3F",
"W  c #A8CE3F",
"Q  c #A9CE3F",
"!  c #FFA070",
"~  c #A7CB40",
"^  c #A8CD40",
"/  c #A9CD40",
"(  c #A9CE40",
")  c #A9CE41",
"_  c #AACE41",
"`  c #AACF41",
"'  c #AACF42",
"]  c #ABCF42",
"[  c #AAD041",
"{  c #ABD041",
"}  c #AAD042",
"|  c #ABD042",
" . c #ABD142",
".. c #ABD143",
"X. c #ACD143",
"o. c #7A2F8C",
"O. c #BF3FB3",
"+. c #918DA1",
"@. c #FF80AA",
"#. c #B2BCC2",
"$. c #FFA7C4",
"%. c white",
/* pixels */
"% % % % : : : 4 4 4 : : : : : : 4 4 : : : : 4 4 4 : : : : : % % ",
"% % % : : : 4 4 4 4 : : : y y y y y y y y : 4 4 : : : : : : : % ",
"% % : : : : : : 4 : y p h h h h h h p h p p y y 4 4 : : 4 4 : : ",
"% : : : : : : 4 y h p p h h h h h h h h p p p h y 4 : : 4 4 : : ",
"= : : : : : 4 y p p p h h h h h h h h T h h h p h h y : : : 4 : ",
": : : : 4 4 y h p h h T h h h h h h h h h         h p y : : 4 4 ",
": : : : 4 y h h h h T T T h h h h h h h   $ O $ +   h p y : : : ",
": : : : 4 h h h h h R T T T T T T T T   #.#.@ + @ +   h p : : : ",
": : : : h p h h h h R _ _ _ _ _ _ _   o . . #.O $ .   h p y : : ",
": : : y h h h T h h _ _ _ _ _ _ _ _   #.+ @ . +.@ @   h h p : : ",
": 4 : y h h h T h T R _ _ _ _ _ _   #.#._ @ $ . +.O   h h h y : ",
"4 4 : p h h T h h R _ _ _ _ { {   #.{ { #._ + . o   ~ h h h y y ",
"4 4 4 h h h h h T R _ _ _ { {   #.%.%.{ { #._ +.  R T h h h h y ",
"4 4 y h h h h h R _ _ _ {     #.%.%.%.X.{ { +.  _   R h h h h y ",
": : y h h h h T R _       #.#.%.%.X.X.X.{ { +.  _   R R h h h y ",
": : y h h h h T     %.%.%.{ X.%.X.X.X.X.{ +.  _ _   R R T h h y ",
": : y h h h     %.%._ { { { X.X.X.X.X.X.{ +.  _ _   R R h h h y ",
": : y h h   %.%.$.$.$.$.$.$.$.@.@.@.X.X.{ +.  _   !   R h h h y ",
": 4 4 h   %.$.$.@.@.@.@.@.@.@.@.@.@.@.@.+.  {   !   #   h h h y ",
": : 4   #.$.@.@.@.@.@.@.@.@.@.@.@.@.@.O.+.  _   !   #   h h h y ",
": : :   @.$.@.@.@.@.@.@.@.@.@.@.@.@.O.o.+.  _   ! # #   h h h 4 ",
": : :   #.O.@.@.@.@.@.@.@.@.@.@.@.O.O.o.+.  _   ! # #   h h h y ",
": : :   #.O.O.@.@.@.@.@.@.@.O.O.O.O.O.o.+.  _   ! # # O   h h y ",
": : : 4   #.O.O.O.O.O.O.O.O.O.O.O.O.O.X +.  _   # # O O   h h h ",
": 4 4 4   #.O.O.O.O.O.O.O.O.O.O.O.O.O.X +.  _   # # O O   h h h ",
": : 4 4 4   #.O.O.O.O.O.O.O.O.O.O.O.O.X +.  _   O O O   h h h h ",
": : : 4 y h   +.o.O.O.O.O.O.O.O.O.O.o.X +.  ~ R       h h h h h ",
"= : : 4 y y y   +.o.o.O.O.O.O.O.O.o.o.X +.  T T h h h h h h h p ",
"% = : : 4 4 h h   +.+.o.o.o.X X X X X +.  h h T h h h h h h p p ",
"% % : : : 4 y 4 h     +.+.+.+.+.+.+.+.  h h h h h h h h h p p y ",
"% % : : : : : 4 y h h                 h h h h h h h h h p p y : ",
"% % = : : : : : y h h h h h h h h h h h h h h h h h p p p y y : "
};
