/* XPM */
static char *_2f4f6ce3e57412cdecee44b1ee7a93fpk0usdd36qpxFaIw[] = {
/* columns rows colors chars-per-pixel */
"32 32 17 1 ",
"  c #17111A",
". c #734538",
"X c #626C75",
"o c #955843",
"O c #A05E47",
"+ c #B86C4F",
"@ c #CF7957",
"# c #EC8A2D",
"$ c #FFA070",
"% c #9CDB43",
"& c #682B82",
"* c #BF3FB3",
"= c #918DA1",
"- c #FF80AA",
"; c #B2BCC2",
": c #FFA7C4",
"> c white",
/* pixels */
"%%%%%%%%%%%%%%%%%%%%%%%%%%%%%%%%",
"%%%%%%%%%%%%%%%%%%%%%%%%%%%%%%%%",
"%%%%%%%%%%%%%%%%%%%%%%%%%%%%%%%%",
"%%%%%%%%%%%%%%%%%%%%%    %%%%%%%",
"%%%%%%%%%%%%%%%%%%%% #o#O %%%%%%",
"%%%%%%%%%%%%%%%%%%% ;;+O+O %%%%%",
"%%%%%%%%%%%%%%%%%% X..;o#. %%%%%",
"%%%%%%%%%%%%%%%%%% ;O+.=++ %%%%%",
"%%%%%%%%%%%%%%%%% ;;%+#.=o %%%%%",
"%%%%%%%%%%%%%%%% ;%%;%O.X %%%%%%",
"%%%%%%%%%%%%%%% ;>>%%;%= %%%%%%%",
"%%%%%%%%%%%%%  ;>>>%%%= % %%%%%%",
"%%%%%%%%%%   ;;>>%%%%%= % %%%%%%",
"%%%%%%%%  >>>%%>%%%%%= %% %%%%%%",
"%%%%%%  >>%%%%%%%%%%%= %% %%%%%%",
"%%%%% >>:::::::---%%%= % $ %%%%%",
"%%%% >::------------= % $ @ %%%%",
"%%% ;:-------------*= % $ @ %%%%",
"%%% -:------------*&= % $@@ %%%%",
"%%% ;*-----------**&= % $@@ %%%%",
"%%% ;**-------*****&= % $@@o %%%",
"%%%% ;*************&= % @@oo %%%",
"%%%% ;*************&= % @@oo %%%",
"%%%%% ;************&= % ooo %%%%",
"%%%%%% =&*********&&= %%   %%%%%",
"%%%%%%% =&&******&&&= %%%%%%%%%%",
"%%%%%%%% ==&&&&&&&&= %%%%%%%%%%%",
"%%%%%%%%%  ======== %%%%%%%%%%%%",
"%%%%%%%%%%%        %%%%%%%%%%%%%",
"%%%%%%%%%%%%%%%%%%%%%%%%%%%%%%%%",
"%%%%%%%%%%%%%%%%%%%%%%%%%%%%%%%%",
"%%%%%%%%%%%%%%%%%%%%%%%%%%%%%%%%"
};
