/* XPM */
static char *_3f73f84611f4c57d0e583a8490b4af9eWgMAmZ0SEhn2y4K[] = {
/* columns rows colors chars-per-pixel */
"32 32 132 2 ",
"   c #17111A",
".  c #734538",
"X  c #626C75",
"o  c #B0351A",
"O  c #805F27",
"+  c #C44D29",
"@  c #D47327",
"#  c #955843",
"$  c #A05E47",
"%  c #B86C4F",
"&  c #CF7957",
"*  c #EC8A2D",
"=  c #E58D30",
"-  c #DABD34",
";  c #DABE34",
":  c #DABE35",
">  c #DBBF35",
",  c #F4A52F",
"<  c #F1A433",
"1  c #FFBA31",
"2  c #FFBF36",
"3  c #9EC238",
"4  c #9EC338",
"5  c #9FC339",
"6  c #9FC438",
"7  c #9FC439",
"8  c #9FC539",
"9  c #A1C538",
"0  c #A0C439",
"q  c #A0C539",
"w  c #A1C539",
"e  c #A1C639",
"r  c #A2C639",
"t  c #A1C53A",
"y  c #A1C53B",
"u  c #A1C63B",
"i  c #A1C73B",
"p  c #A2C63A",
"a  c #A2C73A",
"s  c #A3C73A",
"d  c #A2C63B",
"f  c #A2C73B",
"g  c #A3C73B",
"h  c #A2C63C",
"j  c #A2C73C",
"k  c #A3C73C",
"l  c #A1C83B",
"z  c #A2C83B",
"x  c #A3C83B",
"c  c #A4C83B",
"v  c #A4C93B",
"b  c #A5C93B",
"n  c #A3C83C",
"m  c #A2C93C",
"M  c #A3C93C",
"N  c #A4C83C",
"B  c #A4C93C",
"V  c #A5C93C",
"C  c #A4C83D",
"Z  c #A4C93D",
"A  c #A5C93D",
"S  c #A4CA3C",
"D  c #A5CA3C",
"F  c #A4CA3D",
"G  c #A5CA3D",
"H  c #A5CB3D",
"J  c #A6CA3D",
"K  c #A6CB3D",
"L  c #A7CB3D",
"P  c #A4C83E",
"I  c #A4C93E",
"U  c #A5C93E",
"Y  c #A4CA3E",
"T  c #A5CA3E",
"R  c #A4CB3E",
"E  c #A5CB3E",
"W  c #A5CA3F",
"Q  c #A5CB3F",
"!  c #A6CB3E",
"~  c #A7CB3E",
"^  c #A6CA3F",
"/  c #A6CB3F",
"(  c #A7CB3F",
")  c #A7CC3F",
"_  c #A7CE3F",
"`  c #A8CC3F",
"'  c #A8CD3F",
"]  c #A8CE3F",
"[  c #A9CE3F",
"{  c #CCC339",
"}  c #CCC439",
"|  c #CDC439",
" . c #CDC53A",
".. c #CEC43A",
"X. c #CEC53A",
"o. c #CEC63A",
"O. c #CFC63A",
"+. c #CFC73B",
"@. c #D0C73B",
"#. c #D1C83D",
"$. c #D1C93D",
"%. c #DE945A",
"&. c #FFB955",
"*. c #C3A471",
"=. c #A9CE40",
"-. c #A8CF40",
";. c #A9CE41",
":. c #AACF40",
">. c #AACE41",
",. c #AACF41",
"<. c #AACF42",
"1. c #ABCF42",
"2. c #AAD041",
"3. c #ABD041",
"4. c #AAD042",
"5. c #ABD042",
"6. c #ABD142",
"7. c #ABD143",
"8. c #ACD042",
"9. c #ACD143",
"0. c #FFD04B",
"q. c #FFC55E",
"w. c #FFDE5D",
"e. c #E3CE65",
"r. c #FFCE66",
"t. c #918DA1",
"y. c #D5BD83",
"u. c #FFDA8C",
"i. c #FFF596",
"p. c #FFF7B1",
"a. c #B2BCC2",
"s. c white",
/* pixels */
"3 3 3 3 9 9 9 y y y 9 9 9 9 9 9 y y 9 9 9 9 y y y 9 9 9 9 9 3 3 ",
"3 3 3 9 9 9 y y y y 9 9 9 l l l l l l l l 9 y y 9 9 9 9 9 9 9 3 ",
"3 3 9 9 9 9 9 9 y 9 l c N N N N c c c c c c l l y y 9 9 y y 9 9 ",
"3 9 9 9 9 9 9 y l N c c N N N N N N N N c c c N l y 9 9 y y 9 9 ",
"6 9 9 9 9 9 y l c c c N N N N N N N N N N N N c N N l 9 9 9 y 9 ",
"9 9 9 9 y y l N c N N N N             N N N N N N N c l 9 9 y y ",
"9 9 9 9 y l N N N N N     # & % * $ %     ) N N o.o.N c l 9 9 9 ",
"9 9 9 9 y N N N N N   s.a.) & * & & ) t.X   N N u.r.N N c 9 9 9 ",
"9 9 9 9 l c N N o.N )   a.>.$ & $ * >.t.  ) o.u.s.i.r.o.c l 9 9 ",
"9 9 9 l N N N o.u.o.)   a.s.s.t.t.t.t.X   >.@.r.p.i.&.- N c 9 9 ",
"9 y 9 l N N o.u.i.&.o.>.  X . . . . X   >.>.>.] r.q.N N N N l 9 ",
"y y 9 c N N ) o.q.o.>.>.  a.. % * . t.  >.>.>.>.o.- =.N N N l l ",
"y y y N N N N N e.] >.>.  a.5.5.9.9.t.  5.5.>.>.] ] ) N N N N l ",
"y y l N N N N N o.>.>.  a.s.s.s.9.9.9.t.  5.5.>.>.] ] N N N N l ",
"9 9 l N N N N ) ] >.  a.s.s.s.s.9.9.9.9.t.O 5.>.>.] ] ] N N N l ",
"9 9 l N N N N ) ]   a.s.s.s.s.s.9.9.9.9.5.u.  >.>.] ] ] ) N N l ",
"9 9 l N N N =.>.  s.>.s.s.s.9.9.9.9.9.$.u.i.&.O >.] ] ] N N N l ",
"9 9 l N N N N   s.>.>.s.5.$.9.9.9.9.9.9.5.q.5.t.  ] ] ] N N N l ",
"9 y y N N N   s.] ] >.>.$.u.0.w.w.w.2 5.9.$.5.>.t.  ] ) N N N l ",
"9 9 y N N   s.] ] ] >.0.u.i.&.2 2 2 2 2 2 5.>.>.>.t.  ) N N N l ",
"9 9 9 l N   s.] ] w.w.2 2 q.2 2 2 2 2 2 2 2 2 >.>.t.  ) N N N y ",
"9 9 9 l N   s.= w.2 2 2 2 1 2 2 2 2 2 2 2 2 2 2 + t.  ) N N N l ",
"9 9 9 y N   a.= = 2 2 2 2 2 2 2 2 2 2 2 2 2 2 = + t.  N N N N l ",
"9 y 9 y l N   y.< = = 2 2 2 2 2 2 2 2 2 2 = = + t.  ) N N N N N ",
"9 y y y y l   u.r.= = = = 2 2 2 2 2 2 = = = = @ *.  N N ) N N N ",
"9 9 y y y | u.s.i.r.< = = = = = = = = = = = o u.r.N N N N N N N ",
"9 9 9 y l o.r.p.i.&., = = = = = = = = = = %.u.s.i.r.o.N N N N N ",
"6 9 9 y l l l r.q.  t.= = = = = = = = o o *.r.p.i.&.- N N N N c ",
"3 6 9 9 y y N o.- N   t.t.+ + + o o o t.t.  N r.q.N N N N N c c ",
"3 3 9 9 9 y l y N N N     t.t.t.t.t.t.    N N o.- N N N N c c 9 ",
"3 3 9 9 9 9 9 y l N N N N             N N N N N N N N N c c l 9 ",
"3 3 6 9 9 9 9 9 l N N N N N N N N N N N N N N N N N c c c l 9 9 "
};
