/* XPM */
static char *_4c40554c3da4c2c9102f6d07f90b8fecFgP3rjfIMxfpJTh[] = {
/* columns rows colors chars-per-pixel */
"32 32 35 1 ",
"  c None",
". c #17111A",
"X c #5D1426",
"o c #7A213A",
"O c #734538",
"+ c #626C75",
"@ c #A9303D",
"# c #805F27",
"$ c #A6612D",
"% c #DC7F34",
"& c #D0703A",
"* c #E9613E",
"= c #EF7A3C",
"- c #955843",
"; c #A05E47",
": c #B86C4F",
"> c #E14141",
", c #CF7957",
"< c #EC8A2D",
"1 c #F38636",
"2 c #F38B3A",
"3 c #FFB62E",
"4 c #BB865F",
"5 c #FFB955",
"6 c #C3A471",
"7 c #FFC55E",
"8 c #FFCE66",
"9 c #FFCF77",
"0 c #918DA1",
"q c #D5BD83",
"w c #FFDA8C",
"e c #FFF596",
"r c #FFF7B1",
"t c #B2BCC2",
"y c white",
/* pixels */
"                                ",
"                                ",
"                                ",
"             ......             ",
"           ..-,:<;:..           ",
"          .yt ,<,, 0+.          ",
"           .t ;,;< 0.           ",
"        w  .tyy0000+.           ",
"       we5  .+OOOO+.            ",
"        7   .tO:<O0.            ",
"        9   .t    0.            ",
"           .tyyy   0.           ",
"          .tyyyy    0#          ",
"         .tyyyyy     w.         ",
"        .y yyy      we5#        ",
"       .y  y         7 0.       ",
"      .y     w2***>     0.      ",
"     .y    2we5=>>>>>    0.     ",
"     .y  **>=7=>>>>>>>>  0.     ",
"     .y@*>>>>1>>>>>>>>>>o0.     ",
"     .t@@>>>>=>>>>>>>>>@o0.     ",
"      .q&@@>>>>>>>>>>@@o0.      ",
"      .w8@@@@>>>>>>@@@@$6.      ",
"      wye8&@@@@@@@@@@@Xw8       ",
"      8re5%@@@@@@@@@@4wye8      ",
"       87.0@@@@@@@@XX68re53     ",
"        3 .00oooXXX00. 87       ",
"           ..000000..   3       ",
"             ......             ",
"                                ",
"                                ",
"                                "
};
