/* XPM */
static char *_657b6fea3234b28fd0cb28286fe7d06wrxleJKPFJrsjMTz[] = {
/* columns rows colors chars-per-pixel */
"32 32 87 1 ",
"  c #8A622B",
". c #997333",
"X c #7E9832",
"o c #7E9932",
"O c #7F9932",
"+ c #7F9A33",
"@ c #7F9B33",
"# c #819B33",
"$ c #819C33",
"% c #829C33",
"& c #819C34",
"* c #829C34",
"= c #829C35",
"- c #829D35",
"; c #A6813D",
": c #9EC238",
"> c #9EC338",
", c #9FC339",
"< c #9FC438",
"1 c #9FC439",
"2 c #9FC539",
"3 c #A0C538",
"4 c #A1C538",
"5 c #A0C439",
"6 c #A0C539",
"7 c #A1C539",
"8 c #A1C639",
"9 c #A2C639",
"0 c #A1C53A",
"q c #A1C53B",
"w c #A1C63B",
"e c #A1C73B",
"r c #A2C63A",
"t c #A2C73A",
"y c #A3C73A",
"u c #A2C63B",
"i c #A2C73B",
"p c #A3C73B",
"a c #A2C63C",
"s c #A2C73C",
"d c #A3C73C",
"f c #A1C83B",
"g c #A2C83B",
"h c #A3C83B",
"j c #A4C83B",
"k c #A4C93B",
"l c #A5C93B",
"z c #A3C83C",
"x c #A4C83C",
"c c #A4C93C",
"v c #A5C93C",
"b c #A4C83D",
"n c #A4C93D",
"m c #A5C93D",
"M c #A4CA3C",
"N c #A5CA3C",
"B c #A4CA3D",
"V c #A5CA3D",
"C c #A4CB3D",
"Z c #A5CB3D",
"A c #A6CA3D",
"S c #A6CB3D",
"D c #A7CB3D",
"F c #A4C83E",
"G c #A4C93E",
"H c #A5C93E",
"J c #A4CA3E",
"K c #A5CA3E",
"L c #A4CB3E",
"P c #A5CB3E",
"I c #A5CA3F",
"U c #A5CB3F",
"Y c #A6CB3E",
"T c #A7CB3E",
"R c #A6CA3F",
"E c #A6CB3F",
"W c #A7CB3F",
"Q c #A7CC3F",
"! c #A7CD3F",
"~ c #A7CE3F",
"^ c #A8CC3F",
"/ c #B9954A",
"( c #C4A152",
") c #C9A756",
"_ c #D2B161",
"` c #A9CE41",
"' c #D8C084",
/* pixels */
":::::44444qqqqqq44q444qqq444444:",
"::::444444qqqqffffffff444444q444",
":::444qqq44fjjjjjjjjjjjffq44qq44",
"::4444qq4fjxjjjjxxxxxjxxxfqqqq44",
":<4444qqfjxxxxxx~~xxxxxxxxjf4q44",
":44444qfjjxxxxxx~~xxxxxxxxjjfq44",
"44444qfxjxx~xxxx~~^^xxxxxxxjxf44",
"4444qqxxxx~~~x~~~````^xxxxxxxx44",
"4q444fjxxx~~`^`________~`~xxxjf4",
"4444fjxxxx~~/((__(((_(_)(~x~xxj4",
"4q44fjxxxx//_(((((((((__(/xxxxxf",
"4q44jxxxx/_((((((((((___)//xxxxf",
"qqqqjxxx((((((___(((__)_(//~~xxx",
"qqqfjxx(((((____(((____((/;^~xxx",
"44qfxx)((___________''(((;.^^xxx",
"444fx)))(__((''___'')((((..^^xxx",
"44qfx))))'_;((()))))((((;..^^xxx",
"44qf(///)));;/))))(((((;./.^^xxx",
"4qqq((////)/;//))(;;(((;//;.~xxx",
"4qqq(((((((/;////;;((////;..~xxx",
"4444;/((((((//;;;;(////;;.. ~xxx",
"4444;;;/((/////(((//;;;;. ; ~xxx",
"4q44...;;;;;/;;;;;;;;;.. ;. xxxx",
"4444. ....;;;;;;;....... &  ~xxx",
"44qq   ...........  ...   & xxxx",
"<44q+ +  ...   ...;;.     xxxxxx",
":444q++   #  &     &   & xxxxxxx",
":<44qq++++x$ $$   &&  $$xxxxxxxx",
"::<44qq++x++$x$~$$$x$$DDxxxxxxxj",
":::444qqqxxxxxxxxxxx~~xxxxxxxxjj",
":::44444qfxxxxxxxxxxxxxxxxxxxjjf",
":::<44444fxxxxxxxxxxxxxxxxxjjjfj"
};
