/* XPM */
static char *_d26423d50f642d0c1d3e2307d52f546NkMAX3HUFMhAxw5w[] = {
/* columns rows colors chars-per-pixel */
"32 32 4 1 ",
"  c #221A1F",
". c #32282D",
"X c #33413D",
"o c #5B656C",
/* pixels */
".XXo ooooo .Xooo oooooo Xooooo. ",
".XXX XoooX .XXXX XXoooX .XooXX. ",
"..XX  XXX  .XXXX .XXXXX ..XXX.  ",
"..   ....   ...   ......  ..   .",
". ooo    oo     oo       .  oo. ",
" oooooo oooX. ooooo oooo .oooooX",
" XoooXX XXXX. XoooX XX.. .XXooX.",
".XXXXX. XXXX.  XXX  XX..  .XXX..",
".XXXXX.  XX.   ... .... X       ",
"......  .   . X   X     X. XXXX ",
"        ..... .XXXX. .XXX. .XX..",
"......   ...   ....   ...   ..  ",
"      oo     oo    ooo   .oo  . ",
"oooo ooooo .Xooo oooooo Xooooo. ",
"..XX XoooX .XXXX XXoooX .XooXX. ",
" .XX  XXX  .XXXX .XXXXX ..XXX.  ",
" .... ...   .XX  .XXXXX.       X",
".    X   X .   .  .....  XXXX .X",
"XX. .XXXX. .....        ..XX. .X",
"..   ....   ...   ......  ..   .",
"  ooo    oo     oo       .  oo. ",
" oooooo oooX. ooooo oooo .oooooX",
".XoooXX XXXX. XoooX XX.. .XXooX.",
".XXXXX. XXXX.  XXX  XX..  .XXX..",
"...  X.  XX.   ... .... X  ...  ",
"...XX.. .   . X   X     X. XXXX ",
"....... ..... .XXXX. .XXX. XXX..",
"  ....   ...   ....   ...  ...  ",
"XX    X             XX    X    .",
".XXXXX. XXXX.  XXX  XX..  .XXX..",
"......   ...   ....   ...   ..  ",
"      oo     oo    ooo   .oo  . "
};
