/* XPM */
static char *_c6a36bc43eb46f980250de2a3be997cLzH414uqhbVGz0hb[] = {
/* columns rows colors chars-per-pixel */
"32 32 10 1 ",
"  c #122020",
". c #1B392D",
"X c #24523B",
"o c #1A7A3E",
"O c #14A02E",
"+ c #5F892D",
"@ c #59C135",
"# c #72C135",
"$ c #9CDB43",
"% c #91E550",
/* pixels */
"$$$$$$$$$$$$$$$$$$$$$$$$        ",
"    $$$$$$$      $$$     @@@@@% ",
" %%     $  O@OOO% $ @@@@ %%@@% @",
"%%%%% @% OOOOO@O@  O@%% %%  %%%O",
"%%@$@$ O%OO@OO@OO@OOO@@   @@ %OO",
"@@@@@ O@OO@@@O@@@O@@@@@O@OO@@ O@",
"O@@@ @O@@@@@O@@OOO@@@@@@@@O% O@@",
"OO@ %#@O@@@@@%@%@O@@O@%@O@%OO O@",
"@O @@@@OO%OO@O%@O@@OO@@%%@@O@@ O",
"@O OO@@@@@%@@O@@O@@@OO@%@@O%O@ O",
"OO OO@@@@%@@@@OO@@@@OOO@OOOO%O o",
"OOO OOO@@O@O@@OOO@O@@@@@OOO%@ oo",
"O  @@@@@OO@OOO@@@@OOO@@%%OOOo oo",
" O@OOo@OO@@OOO%OOOOoo@O%OOOO.. o",
" OOOOooO@@@@O%@%OOOo@OoooOOOOX o",
"o oXoooOooO@O@O@OOO@OOooXO@oo. o",
"O oXoooOooO@O@O@OOO@OOooXO@oo. o",
"O .o@ooOooOOooooOO@@OOooXOoooX. ",
"o oo@@oo..oOXXXoOOOoo..XXooooXo ",
"oo XXooXo..oXXooOXX...OOooX.X.X ",
"o Xo.ooOOOXXoOXXOXXXXXoOoX.XX.. ",
"o XX.XX..OOOOOoXooOOX.XOO..X.. o",
"oo .XX....XO.oOoXoXXOXoOO..X. oo",
"ooo .o..X...XXXXXX.OOXoX..XX ooo",
"oooo XXoXXoXXXXoo....oXXXXX. ooo",
"XoXX XoXXXXXoXo.oX.....XX.. XXoX",
"XoXXX X..XX.Xo..XX..X.XX.. XXoXX",
"oXXXXX   ...XoXXXXXXXX... .X.X..",
"Xo...X...  ....X........  ....  ",
"..  ...  ++             +    ...",
"        ++++++++++++++++++++    ",
"$$$$$$++++++++++++++++++++++$$$$"
};
